# xmcd
#
# Track frame offsets:
#	150
#	13472
#	31108
#	38055
#	52160
#	67871
#	87276
#	116737
#	133676
#	154788
#	166955
#	184787
#	208384
#	236093
#	250876
#	265341
#	296398
#	321393
#	339925
#
# Disc length: 4707 seconds
#
# Revision: 1
# Processed by: cddbd v1.5.1PL0 Copyright (c) Steve Scherf et al.
# Submitted via: audiograbber 1.83.01
#
DISCID=19126113
DTITLE=Various Artist - Semper Satago
DYEAR=2005
DGENRE=Rock
TTITLE0=Sons and Daughters - Johnny Cash
TTITLE1=The Blueskins - Girl
TTITLE2=Clinic - Nicht
TTITLE3=Archie Bronson Outfit - Islands
TTITLE4=Franz Ferdinand - Love and Destroy
TTITLE5=Adem - These Are Your Friends
TTITLE6=Woodbine - Neskwik
TTITLE7=Hood - The Negatives
TTITLE8=Four Tet - As Serious As You Are
TTITLE9=Caribou - Crayon
TTITLE10=To Rococo Rot - Sol
TTITLE11=The Notwist - Consequence
TTITLE12=James Yorkston and the Athletes - Edward
TTITLE13=Clearlake - If the Snow Will Settle
TTITLE14=King Creosote - Missionary
TTITLE15=Ulrich Schnauss - In All The Wrong Places
TTITLE16=Junior Boys - Teach Me How to Fight
TTITLE17=Juana Molina - Solo Su Vaz
TTITLE18=Orange Juice - Blue Boy
EXTD=
EXTT0=
EXTT1=
EXTT2=
EXTT3=
EXTT4=
EXTT5=
EXTT6=
EXTT7=
EXTT8=
EXTT9=
EXTT10=
EXTT11=
EXTT12=
EXTT13=
EXTT14=
EXTT15=
EXTT16=
EXTT17=
EXTT18=
PLAYORDER=
